<svg data-v-43392cca="" version="1.0" xmlns="http://www.w3.org/2000/svg" xmlns:xlink="http://www.w3.org/1999/xlink" width="100%" height="100%" viewBox="0 0 340.000000 250.000000" preserveAspectRatio="xMidYMid meet" color-interpolation-filters="sRGB" class="el-tooltip" style="margin: auto;">
    <rect data-v-43392cca="" x="0" y="0" width="100%" height="100%" fill="#444" fill-opacity="1"></rect>
    <g data-v-43392cca="" fill="#fff" class="icon-text-wrapper icon-svg-group iconsvg" transform="translate(103.6050033569336,72.43490219116211)">
        <g class="iconsvg-imagesvg" transform="translate(36.38340759277344,0)">
            <rect fill="#fff" fill-opacity="0" stroke-width="2" x="0" y="0" width="60" height="68.700906344411" class="image-rect"></rect>
            <svg filter="url(#colors7666636045)" x="0" y="0" width="60" height="68.700906344411" filtersec="colorsf3390996875" class="image-svg-svg">
                <svg xmlns="http://www.w3.org/2000/svg" viewBox="0 0 99.3 113.7">
                    <defs>
                        <linearGradient id="a4a932448-9240-472d-ba14-f0d17fda7b3e" x1="10.45" y1="69.82" x2="55.78" y2="43.65" gradientUnits="userSpaceOnUse">
                            <stop offset="0" stop-color="#1a1a1a"></stop>
                            <stop offset="1" stop-color="#4d4d4d"></stop>
                        </linearGradient>
                        <linearGradient id="bbc3c7439-34dd-49a5-ae85-5cb36b4a9100" x1="50.79" y1="53.01" x2="109.18" y2="19.3" gradientUnits="userSpaceOnUse">
                            <stop offset="0" stop-color="#0064bf"></stop>
                            <stop offset="1" stop-color="#00dbff"></stop>
                        </linearGradient>
                    </defs>
                    <g>
                        <g>
                            <g>
                                <path d="M37.5 113.7a3.1 3.1 0 0 1-2.9-2.1L.1 3.9a3.3 3.3 0 0 1 .5-2.7A3 3 0 0 1 3 0h25.8a2.9 2.9 0 0 1 2.9 2.1l34 107.7a2.7 2.7 0 0 1-.4 2.6 3.1 3.1 0 0 1-2.4 1.3z" fill="url(#a4a932448-9240-472d-ba14-f0d17fda7b3e)"></path>
                                <path d="M70.2 83.6a3 3 0 0 1-2.9-2.1L55.2 46.2a3.1 3.1 0 0 1-.1-1.9L67.4 2.2A3.1 3.1 0 0 1 70.3 0h26a3 3 0 0 1 2.4 1.2 3.1 3.1 0 0 1 .5 2.8L73 81.5a3 3 0 0 1-2.8 2.1z" fill="url(#bbc3c7439-34dd-49a5-ae85-5cb36b4a9100)"></path>
                            </g>
                        </g>
                    </g>
                </svg>
            </svg>
            <defs>
                <filter id="colors7666636045">
                    <feColorMatrix type="matrix" values="0 0 0 0 0.99609375  0 0 0 0 0.99609375  0 0 0 0 0.99609375  0 0 0 1 0" class="icon-fecolormatrix"></feColorMatrix>
                </filter>
                <filter id="colorsf3390996875">
                    <feColorMatrix type="matrix" values="0 0 0 0 0.99609375  0 0 0 0 0.99609375  0 0 0 0 0.99609375  0 0 0 1 0" class="icon-fecolormatrix"></feColorMatrix>
                </filter>
                <filter id="colorsb950927188">
                    <feColorMatrix type="matrix" values="0 0 0 0 0  0 0 0 0 0  0 0 0 0 0  0 0 0 1 0" class="icon-fecolormatrix"></feColorMatrix>
                </filter>
            </defs>
        </g>
        <g transform="translate(0,75.70220947265625)">
            <g class="tp-name iconsvg-namesvg">
                <g>
                    <path d="M19.04-16.43L25.20-16.43L16.56 0.99L10.44 0.99L1.80-16.43L7.96-16.43L13.59-4.63L19.04-16.43ZM55.75-16.43L62.05-16.43L55.13 0.85L48.91 0.85L45.36-8.46L41.63 0.85L35.37 0.85L28.80-16.43L35.05-16.43L38.70-6.48L42.30-16.43L48.51-16.43L52.16-6.43L55.75-16.43ZM75.10-16.79Q78.39-16.79 80.50-15.32Q82.62-13.86 83.59-11.72Q84.55-9.58 84.55-7.56L84.55-7.56Q84.55-5.31 83.59-3.10Q82.62-0.90 80.50 0.54Q78.39 1.98 75.10 1.93L75.10 1.93Q71.86 1.98 69.75 0.47Q67.63-1.03 66.64-3.24Q65.66-5.44 65.66-7.56L65.66-7.56Q65.66-9.54 66.64-11.68Q67.63-13.81 69.77-15.30Q71.91-16.79 75.10-16.79L75.10-16.79ZM75.33-1.53Q77.76-1.53 79.11-3.26Q80.46-5.00 80.46-7.69L80.46-7.69Q80.46-10.48 79.06-11.99Q77.67-13.50 75.33-13.50L75.33-13.50Q72.72-13.50 71.26-11.99Q69.80-10.48 69.80-7.42L69.80-7.42Q69.80-4.95 71.14-3.24Q72.50-1.53 75.33-1.53L75.33-1.53ZM97.60-16.79Q100.89-16.79 103.00-15.32Q105.12-13.86 106.09-11.72Q107.05-9.58 107.05-7.56L107.05-7.56Q107.05-5.31 106.09-3.10Q105.12-0.90 103.00 0.54Q100.89 1.98 97.60 1.93L97.60 1.93Q94.36 1.98 92.25 0.47Q90.13-1.03 89.14-3.24Q88.15-5.44 88.15-7.56L88.15-7.56Q88.15-9.54 89.14-11.68Q90.13-13.81 92.27-15.30Q94.41-16.79 97.60-16.79L97.60-16.79ZM97.83-1.53Q100.26-1.53 101.61-3.26Q102.96-5.00 102.96-7.69L102.96-7.69Q102.96-10.48 101.56-11.99Q100.17-13.50 97.83-13.50L97.83-13.50Q95.22-13.50 93.76-11.99Q92.29-10.48 92.29-7.42L92.29-7.42Q92.29-4.95 93.64-3.24Q94.99-1.53 97.83-1.53L97.83-1.53ZM131.49-3.92Q132.44-3.55 134.59-2.92L134.59-2.92Q133.88-1.67 132.55-0.29Q131.22 1.08 130.05 1.53L130.05 1.53Q127.66 0.67 126.09-0.63L126.09-0.63Q123.75 1.35 119.38 1.35L119.38 1.35Q114.93 1.35 112.79-1.06Q110.65-3.46 110.65-7.38L110.65-7.38Q110.65-11.21 112.88-13.68Q115.11-16.16 119.38-16.16L119.38-16.16Q123.16-16.16 125.46-14.54L125.46-14.54L125.46-19.48L125.14-25.83Q126.31-26.55 128.59-27.02Q130.86-27.49 132.52-27.49L132.52-27.49L131.49-19.48L131.49-3.92ZM120.06-2.02Q121.99-2.02 123.39-2.75Q124.78-3.46 125.46-4.81L125.46-4.81L125.46-9.95Q124.24-12.46 120.06-12.46L120.06-12.46Q117.58-12.46 116.37-11.09Q115.15-9.72 115.15-7.29L115.15-7.29Q115.15-4.81 116.37-3.42Q117.58-2.02 120.06-2.02L120.06-2.02Z" transform="translate(-1.8, 27.495)"></path>
                </g> <!----> <!----> <!----> <!----> <!----> <!----> <!---->
            </g> <!---->
        </g>
    </g>
</svg>